<svg width="25.533203" height="23.750000" viewBox="0 0 25.5332 23.75" fill="none" xmlns="http://www.w3.org/2000/svg" xmlns:xlink="http://www.w3.org/1999/xlink">
	<desc>
			Created with Pixso.
	</desc>
	<defs/>
	<path d="M10.7783 23C11.4531 23 12 22.4531 12 21.7778C12 21.103 11.4531 20.5557 10.7783 20.5557C10.1025 20.5557 9.55566 21.103 9.55566 21.7778C9.55566 22.4531 10.1025 23 10.7783 23Z" fill="#FFFFFF" fill-opacity="1.000000" fill-rule="nonzero"/>
	<path d="M10.7783 23C10.1025 23 9.55566 22.4531 9.55566 21.7778C9.55566 21.103 10.1025 20.5557 10.7783 20.5557C11.4531 20.5557 12 21.103 12 21.7778C12 22.4531 11.4531 23 10.7783 23Z" stroke="#FFFFFF" stroke-opacity="1.000000" stroke-width="1.500000" stroke-linejoin="round"/>
	<path d="M19.334 23C20.0088 23 20.5557 22.4531 20.5557 21.7778C20.5557 21.103 20.0088 20.5557 19.334 20.5557C18.6582 20.5557 18.1113 21.103 18.1113 21.7778C18.1113 22.4531 18.6582 23 19.334 23Z" fill="#FFFFFF" fill-opacity="1.000000" fill-rule="nonzero"/>
	<path d="M19.334 23C18.6582 23 18.1113 22.4531 18.1113 21.7778C18.1113 21.103 18.6582 20.5557 19.334 20.5557C20.0088 20.5557 20.5557 21.103 20.5557 21.7778C20.5557 22.4531 20.0088 23 19.334 23Z" stroke="#FFFFFF" stroke-opacity="1.000000" stroke-width="1.500000" stroke-linejoin="round"/>
	<path d="M1 1L4.78223 1L7.61816 17.0732L22.7461 17.0732" stroke="#FFFFFF" stroke-opacity="1.000000" stroke-width="2.000000" stroke-linejoin="round" stroke-linecap="round"/>
	<path d="M7.11133 13.1836L22.3584 13.2905C22.4678 13.2905 22.5732 13.2529 22.6582 13.1836C22.7432 13.1143 22.8008 13.0181 22.8223 12.9106L24.5244 4.40137C24.5381 4.33301 24.5361 4.26221 24.5195 4.19434C24.502 4.12646 24.4707 4.06299 24.4258 4.00879C24.3818 3.95459 24.3262 3.91113 24.2627 3.88135C24.1992 3.85156 24.1299 3.83594 24.0605 3.83594L5.56738 3.83594" stroke="#FFFFFF" stroke-opacity="1.000000" stroke-width="2.000000" stroke-linejoin="round" stroke-linecap="round"/>
</svg>
